name Walk7.mot
datacolumns 19
datarows 27
range 1.88200000 1.90800000
endheader

                time	   L_ground_force_vx	   L_ground_force_vy	   L_ground_force_vz	   L_ground_force_px	   L_ground_force_py	   L_ground_force_pz	   R_ground_force_vx	   R_ground_force_vy	   R_ground_force_vz	   R_ground_force_px	   R_ground_force_py	   R_ground_force_pz	   L_ground_torque_x	   L_ground_torque_y	   L_ground_torque_z	   R_ground_torque_x	   R_ground_torque_y	   R_ground_torque_z	
          1.88200000	          0.14676779	          0.27231931	          0.00134632	          0.00158816	          0.00000000	          0.00027532	        -26.58711410	        652.55865880	        -49.46686325	          0.12508058	          0.00000000	          0.07646139	          0.00000000	         -0.00194797	          0.00000000	          0.00000000	          4.63673953	          0.00000000	
          1.88300000	          0.15108967	          0.29815395	         -0.00089745	          0.00145279	          0.00000000	          0.00025365	        -26.00384976	        650.85444314	        -49.42540522	          0.12552629	          0.00000000	          0.07646849	          0.00000000	         -0.00185421	          0.00000000	          0.00000000	          4.63659913	          0.00000000	
          1.88400000	          0.15447315	          0.32066537	         -0.00294705	          0.00132345	          0.00000000	          0.00023287	        -25.42777800	        649.20222318	        -49.38261551	          0.12596964	          0.00000000	          0.07647537	          0.00000000	         -0.00176142	          0.00000000	          0.00000000	          4.63704467	          0.00000000	
          1.88500000	          0.15698524	          0.34005105	         -0.00481125	          0.00120010	          0.00000000	          0.00021297	        -24.85878057	        647.60238251	        -49.33870809	          0.12641067	          0.00000000	          0.07648204	          0.00000000	         -0.00166986	          0.00000000	          0.00000000	          4.63809993	          0.00000000	
          1.88600000	          0.15869053	          0.35650351	         -0.00649877	          0.00108270	          0.00000000	          0.00019396	        -24.29673102	        646.05526252	        -49.29390392	          0.12684940	          0.00000000	          0.07648847	          0.00000000	         -0.00157977	          0.00000000	          0.00000000	          4.63978661	          0.00000000	
          1.88700000	          0.15965117	          0.37020997	         -0.00801825	          0.00097119	          0.00000000	          0.00017583	        -23.74149520	        644.56115947	        -49.24842941	          0.12728586	          0.00000000	          0.07649464	          0.00000000	         -0.00149138	          0.00000000	          0.00000000	          4.64212444	          0.00000000	
          1.88800000	          0.15992685	          0.38135211	         -0.00937824	          0.00086550	          0.00000000	          0.00015858	        -23.19293187	        643.12032169	        -49.20251481	          0.12772009	          0.00000000	          0.07650052	          0.00000000	         -0.00140486	          0.00000000	          0.00000000	          4.64513127	          0.00000000	
          1.88900000	          0.15957477	          0.39010586	         -0.01058716	          0.00076552	          0.00000000	          0.00014220	        -22.65089338	        641.73294709	        -49.15639277	          0.12815210	          0.00000000	          0.07650609	          0.00000000	         -0.00132039	          0.00000000	          0.00000000	          4.64882305	          0.00000000	
          1.89000000	          0.15864962	          0.39664121	         -0.01165329	          0.00067114	          0.00000000	          0.00012667	        -22.11522619	        640.39918156	        -49.11029683	          0.12858191	          0.00000000	          0.07651130	          0.00000000	         -0.00123811	          0.00000000	          0.00000000	          4.65321382	          0.00000000	
          1.89100000	          0.15720364	          0.40112208	         -0.01258473	          0.00058226	          0.00000000	          0.00011199	        -21.58577138	        639.11911895	        -49.06446009	          0.12900955	          0.00000000	          0.07651612	          0.00000000	         -0.00115815	          0.00000000	          0.00000000	          4.65831587	          0.00000000	
          1.89200000	          0.15528656	          0.40370623	         -0.01338943	          0.00049873	          0.00000000	          0.00009813	        -21.06236514	        637.89280262	        -49.01911378	          0.12943500	          0.00000000	          0.07652050	          0.00000000	         -0.00108062	          0.00000000	          0.00000000	          4.66413979	          0.00000000	
          1.89300000	          0.15294569	          0.40454514	         -0.01407511	          0.00042042	          0.00000000	          0.00008507	        -20.54483912	        636.72022782	        -48.97448567	          0.12985827	          0.00000000	          0.07652438	          0.00000000	         -0.00100559	          0.00000000	          0.00000000	          4.67069466	          0.00000000	
          1.89400000	          0.15022590	          0.40378405	         -0.01464930	          0.00034718	          0.00000000	          0.00007281	        -20.03302082	        635.60134427	        -48.93079839	          0.13027935	          0.00000000	          0.07652771	          0.00000000	         -0.00093314	          0.00000000	          0.00000000	          4.67798802	          0.00000000	
          1.89500000	          0.14716969	          0.40156186	         -0.01511932	          0.00027886	          0.00000000	          0.00006131	        -19.52673390	        634.53605876	        -48.88826753	          0.13069823	          0.00000000	          0.07653042	          0.00000000	         -0.00086332	          0.00000000	          0.00000000	          4.68602588	          0.00000000	
          1.89600000	          0.14381722	          0.39801120	         -0.01549224	          0.00021529	          0.00000000	          0.00005056	        -19.02579873	        633.52423800	        -48.84709953	          0.13111489	          0.00000000	          0.07653248	          0.00000000	         -0.00079618	          0.00000000	          0.00000000	          4.69481257	          0.00000000	
          1.89700000	          0.14020633	          0.39325844	         -0.01577491	          0.00015631	          0.00000000	          0.00004053	        -18.53003306	        632.56571191	        -48.80748950	          0.13152932	          0.00000000	          0.07653383	          0.00000000	         -0.00073174	          0.00000000	          0.00000000	          4.70435061	          0.00000000	
          1.89800000	          0.13637265	          0.38742375	         -0.01597394	          0.00010176	          0.00000000	          0.00003121	        -18.03925285	        631.66027741	        -48.76961900	          0.13194148	          0.00000000	          0.07653442	          0.00000000	         -0.00067001	          0.00000000	          0.00000000	          4.71464044	          0.00000000	
          1.89900000	          0.13234960	          0.38062117	         -0.01609569	          0.00005146	          0.00000000	          0.00002255	        -17.55327324	        630.80770230	        -48.73365399	          0.13235135	          0.00000000	          0.07653421	          0.00000000	         -0.00061100	          0.00000000	          0.00000000	          4.72568008	          0.00000000	
          1.90000000	          0.12816849	          0.37295869	         -0.01614626	          0.00000524	          0.00000000	          0.00001455	        -17.07190919	        630.00772876	        -48.69974293	          0.13275891	          0.00000000	          0.07653317	          0.00000000	         -0.00055470	          0.00000000	          0.00000000	          4.73746485	          0.00000000	
          1.90100000	          0.12385856	          0.36453838	         -0.01613152	         -0.00003707	          0.00000000	          0.00000717	        -16.59497592	        629.26007610	        -48.66801536	          0.13316411	          0.00000000	          0.07653127	          0.00000000	         -0.00050109	          0.00000000	          0.00000000	          4.74998706	          0.00000000	
          1.90200000	          0.11944705	          0.35545650	         -0.01605708	         -0.00007564	          0.00000000	          0.00000039	        -16.12228889	        628.56444267	        -48.63858098	          0.13356692	          0.00000000	          0.07652848	          0.00000000	         -0.00045014	          0.00000000	          0.00000000	          4.76323591	          0.00000000	
          1.90300000	          0.11495925	          0.34580360	         -0.01592828	         -0.00011065	          0.00000000	         -0.00000581	        -15.65366348	        627.92050740	        -48.61152921	          0.13396730	          0.00000000	          0.07652476	          0.00000000	         -0.00040183	          0.00000000	          0.00000000	          4.77719747	          0.00000000	
          1.90400000	          0.11041862	          0.33566473	         -0.01575025	         -0.00014226	          0.00000000	         -0.00001146	        -15.18891455	        627.32793126	        -48.58692946	          0.13436520	          0.00000000	          0.07652009	          0.00000000	         -0.00035610	          0.00000000	          0.00000000	          4.79185473	          0.00000000	
          1.90500000	          0.10584681	          0.32511951	         -0.01552785	         -0.00017064	          0.00000000	         -0.00001659	        -14.72785610	        626.78635962	        -48.56483175	          0.13476059	          0.00000000	          0.07651444	          0.00000000	         -0.00031292	          0.00000000	          0.00000000	          4.80718747	          0.00000000	
          1.90600000	          0.10126375	          0.31424233	         -0.01526567	         -0.00019597	          0.00000000	         -0.00002122	        -14.27030119	        626.29542534	        -48.54526766	          0.13515342	          0.00000000	          0.07650778	          0.00000000	         -0.00027222	          0.00000000	          0.00000000	          4.82317212	          0.00000000	
          1.90700000	          0.09668770	          0.30310253	         -0.01496810	         -0.00021840	          0.00000000	         -0.00002538	        -13.81606195	        625.85475252	        -48.52825126	          0.13554365	          0.00000000	          0.07650008	          0.00000000	         -0.00023396	          0.00000000	          0.00000000	          4.83978165	          0.00000000	
          1.90800000	          0.09213537	          0.29176452	         -0.01463927	         -0.00023811	          0.00000000	         -0.00002908	        -13.36494992	        625.46395996	        -48.51378013	          0.13593124	          0.00000000	          0.07649129	          0.00000000	         -0.00019806	          0.00000000	          0.00000000	          4.85698567	          0.00000000	
